<?xml version="1.0" encoding="utf-8"?>
<!-- Generator: Adobe Illustrator 27.0.0, SVG Export Plug-In . SVG Version: 6.00 Build 0)  -->
<svg version="1.1" id="Layer_1" xmlns="http://www.w3.org/2000/svg" xmlns:xlink="http://www.w3.org/1999/xlink" x="0px" y="0px"
	 viewBox="0 0 413 371" style="enable-background:new 0 0 413 371;" xml:space="preserve">
<style type="text/css">
	.st0{fill:#804DEE;}
</style>
<g>
	<path class="st0" d="M67.5,230.7l3.7,4.7l-1.9-6.1C68.9,226.5,65.6,229.8,67.5,230.7 M71.7,227.9c1.4,2.3,2.8,4.7,2.8,7
		c0,3.3,2.8,4.7,5.1,5.6C76.3,236.7,74.4,226.5,71.7,227.9 M250.5,30.4c7.9,0,15.4-0.9,23.8,0.9c20.5,5.1,37.7,15.4,49.4,29.8
		l32.6,52.2c1.4,13,4.2,27.5,3.7,43.3c3.3,0,2.8-4.7,6.5-5.6c-3.7,9.3-5.6,21-6.5,34.5c-2.3-7.5,0-18.6,0.5-24.7
		c-3.3,5.1-5.1,1.4-5.1-0.9c0.5-3.7-1.4-3.3-2.8-4.7c-5.1-4.7-8.4-9.8-12.1-17.7c2.3-6.1,2.8-14.9-4.7-19.6
		c-2.3-1.4-5.1-3.7-6.5-7.5c-1.9-5.1-5.1-11.2-4.2-19.1c0.5-2.3-7,5.1-11.2,1.9c-18.2-12.6-36.3-27-58.2-39.1
		c-11.6,0-20-4.2-24.2-9.3c-3.7-4.7-0.9-10.7,4.7-11.2c3.3,0,7-0.9,9.8,0.9C246.3,32.7,248.2,30.4,250.5,30.4 M204.4,19.7l0.9,0.5
		c4.7,0.9,7,7.5,12.1,5.1c0,3.3,0.5,6.5-0.5,8.8c-1.4,3.7-5.6,3.7-8.9,3.7C176.9,36,158.8,49,139.7,60.2c-5.1,3.3-10.7,5.6-14.9,9.8
		c-20,18.6-41.9,35.9-47,70.3l-4.2,38.2c-0.5,4.2-5.1,8.4-4.2,13.5l3.3,22.8c-3.3-3.3-5.1,0.9-4.2,2.8c0.5,1.4,2.3,6.1,5.1,1.9
		c3.7,7,7.5,20.5,12.6,26.6c15.8,18.6,36.3,35.4,53.1,52.2c4.2-0.9,7.5-0.9,8.4-3.7c1.4,2.8-1.4,5.6-3.7,6.1
		c7.5,4.7,15.8,8.9,27,9.8c14.4,0.9,27.9,3.3,40.5,6.5c6.5-1.9,13-2.8,20-3.3c2.3,0,3.7-3.7,6.5-4.7l0.5-4.7
		c2.8,4.2,2.3-1.4,0.5-4.2c3.3,2.8,4.2,5.1,5.6,7c0-1.4,3.7-6.5,3.7-0.5l0.9-6.1c1.4-0.9,1.9,5.1,3.3,0.9c1.4-4.2,4.2-0.9,7-2.3
		c-0.9,1.9-0.5,5.6,2.8,3.3l3.7-3.3c2.3,5.6,6.1,3.3,7.9,2.3c20.5-13,41-28.4,60.6-43.8l-0.5,6.1l2.3-7.5c2.3,2.3,4.2,0.5,5.1-0.9
		c2.8-4.7,6.5-9.3,12.6-13.5c-7.5,20-16.3,35.9-27.5,48.9l-4.7,5.6c0,3.3-0.9,7.5-4.7,7.9c-1.9,0.5-5.6-0.9-8.4,1.9
		c-1.4,1.9,3.3,5.6-0.5,2.8c-3.3-2.3-6.5,0-10.2,0.9c-2.8,0.9,1.9,3.7,2.8,5.6c0.9,1.9,1.9,3.7,1.4,6.1l-5.1-5.6
		c-6.1,3.3-9.8,9.3-14.9,14c-2.3,1.9-1.4,5.1-1.4,7.9c-3.3,0-7-0.9-8.9,0.9c-1.4,1.9-0.9,4.7-0.9,7.5c-4.7-0.5-5.1-7.5-9.3-6.1
		c-4.2,0.9-8.9,1.4-12.6,3.7c2.8,5.6-4.7,2.3-3.7,3.3c-7-4.2-13-7.5-20.5-4.7c-15.8-5.1-35.4-2.8-49.8-0.9c0-2.3,0.5-4.7-0.5-5.1
		c-0.9,2.3-3.7,1.4-3.3,1.4c-8.9-6.1-17.7-9.8-27-14.9c-8.4,0.9-16.3-3.3-18.6-5.6c-6.5-6.1-14-2.8-20-4.2
		c-13-3.3-17.7-16.8-19.1-26.1c-0.9-4.7-4.7-6.5-6.1-6.1c-6.1-19.6-15.4-37.3-22.8-55.4c-1.9-4.7-1.4-9.3-1.4-14.4
		c2.3,0.9,4.7,0.5,4.2-2.8c-2.3-15.4-7.9-27-14-38.2c3.3-15.8,3.7-34.5,11.2-48.4c6.5-12.6,18.6-19.1,27-29.8
		c2.8-3.7,2.8-8.8,5.6-12.1c9.3-9.3,18.6-19.1,28.9-27.5c4.7-3.7,10.2,0,17.2-1.4c2.3-8.4,11.6-15.8,20.5-13.5
		c3.7,0.9,11.2-8.9,13.5-9.8c3.7-1.4,1.9,3.7,1.9,7C181.1,27.6,193.2,23.9,204.4,19.7"/>
</g>
<g transform="matrix(1,0,0,1,96.2135922330097,90)">
	<g>
		<g>
			<g>
				<g>
					<g>
						<g transform="matrix(1,0,0,1,0,0)">
							<path id="text-0" class="st0" d="M112.2,3.5c12.1,0,22.7,1.7,31.7,5.2s17.4,8.8,25.2,16l0,0l-16.2,18.7
								c-6.2-5.2-12.3-8.9-18.6-11.2c-6.3-2.3-13-3.5-20.1-3.5l0,0c-8,0-14.4,1.8-19.3,5.3c-4.9,3.6-7.4,8.6-7.4,15.1l0,0
								c0,4.3,1,7.9,2.9,10.7c1.9,2.8,5.3,5.5,10.3,8c5,2.5,12.4,5.2,22.2,8.2l0,0c17,5.3,29.8,11.9,38.3,19.8
								c8.6,7.9,12.8,19.5,12.8,34.6l0,0c0,10.3-2.6,19.5-7.8,27.5c-5.3,8-12.8,14.2-22.6,18.7c-9.8,4.5-21.5,6.7-35,6.7l0,0
								c-13.1,0-24.9-2.1-35.3-6.4c-10.4-4.2-19.4-10-26.9-17.3l0,0l17-19c6.7,5.7,13.6,9.9,20.7,12.8c7.2,2.9,15.1,4.4,23.7,4.4
								l0,0c9.5,0,17.1-2.2,23-6.7c5.8-4.5,8.7-10.8,8.7-19l0,0c0-5-1-9.1-3-12.4c-2-3.2-5.4-6.1-10.2-8.7c-4.8-2.6-11.8-5.3-21-8.1
								l0,0c-18.3-5.7-31.5-12.5-39.7-20.5S53.5,64.1,53.5,51.1l0,0c0-9.5,2.5-17.8,7.5-25s12-12.7,20.9-16.7
								C90.7,5.5,100.8,3.5,112.2,3.5L112.2,3.5z"/>
						</g>
					</g>
				</g>
			</g>
		</g>
	</g>
</g>
<image style="overflow:visible;" width="580" height="462" xlink:href="../../../../../Desktop/apple-touch-icon.png"  transform="matrix(0.7121 0 0 0.803 0 0)">
</image>
</svg>
